<svg width="266" height="318" viewBox="0 0 266 318" fill="none" xmlns="http://www.w3.org/2000/svg">
<circle cx="7" cy="7" r="7" fill="#CCD1D8"/>
<circle cx="43" cy="7" r="7" fill="#747F8E"/>
<circle cx="79" cy="7" r="7" fill="#CCD1D8"/>
<circle cx="115" cy="7" r="7" fill="#CCD1D8"/>
<circle cx="151" cy="7" r="7" fill="#CCD1D8"/>
<circle cx="187" cy="7" r="7" fill="#747F8E"/>
<circle cx="223" cy="7" r="7" fill="#CCD1D8"/>
<circle cx="259" cy="7" r="7" fill="#CCD1D8"/>
<circle cx="7" cy="45" r="7" fill="#CCD1D8"/>
<circle cx="43" cy="45" r="7" fill="#747F8E"/>
<circle cx="79" cy="45" r="7" fill="#CCD1D8"/>
<circle cx="115" cy="45" r="7" fill="#CCD1D8"/>
<circle cx="151" cy="45" r="7" fill="#CCD1D8"/>
<circle cx="187" cy="45" r="7" fill="#747F8E"/>
<circle cx="223" cy="45" r="7" fill="#CCD1D8"/>
<circle cx="259" cy="45" r="7" fill="#CCD1D8"/>
<circle cx="7" cy="83" r="7" fill="#CCD1D8"/>
<circle cx="43" cy="83" r="7" fill="#747F8E"/>
<circle cx="79" cy="83" r="7" fill="#CCD1D8"/>
<circle cx="115" cy="83" r="7" fill="#CCD1D8"/>
<circle cx="151" cy="83" r="7" fill="#CCD1D8"/>
<circle cx="187" cy="83" r="7" fill="#747F8E"/>
<circle cx="223" cy="83" r="7" fill="#747F8E"/>
<circle cx="259" cy="83" r="7" fill="#CCD1D8"/>
<circle cx="7" cy="121" r="7" fill="#CCD1D8"/>
<circle cx="43" cy="121" r="7" fill="#747F8E"/>
<circle cx="79" cy="121" r="7" fill="#CCD1D8"/>
<circle cx="115" cy="121" r="7" fill="#CCD1D8"/>
<circle cx="151" cy="121" r="7" fill="#CCD1D8"/>
<circle cx="187" cy="121" r="7" fill="#747F8E"/>
<circle cx="223" cy="121" r="7" fill="#CCD1D8"/>
<circle cx="259" cy="121" r="7" fill="#CCD1D8"/>
<circle cx="7" cy="159" r="7" fill="#CCD1D8"/>
<circle cx="43" cy="159" r="7" fill="#747F8E"/>
<circle cx="79" cy="159" r="7" fill="#CCD1D8"/>
<circle cx="115" cy="159" r="7" fill="#CCD1D8"/>
<circle cx="151" cy="159" r="7" fill="#CCD1D8"/>
<circle cx="187" cy="159" r="7" fill="#747F8E"/>
<circle cx="223" cy="159" r="7" fill="#CCD1D8"/>
<circle cx="259" cy="159" r="7" fill="#CCD1D8"/>
<circle cx="7" cy="197" r="7" fill="#CCD1D8"/>
<circle cx="43" cy="197" r="7" fill="#747F8E"/>
<circle cx="79" cy="197" r="7" fill="#CCD1D8"/>
<circle cx="115" cy="197" r="7" fill="#CCD1D8"/>
<circle cx="151" cy="197" r="7" fill="#CCD1D8"/>
<circle cx="187" cy="197" r="7" fill="#747F8E"/>
<circle cx="223" cy="197" r="7" fill="#CCD1D8"/>
<circle cx="259" cy="197" r="7" fill="#CCD1D8"/>
<circle cx="7" cy="235" r="7" fill="#CCD1D8"/>
<circle cx="43" cy="235" r="7" fill="#747F8E"/>
<circle cx="79" cy="235" r="7" fill="#CCD1D8"/>
<circle cx="115" cy="235" r="7" fill="#CCD1D8"/>
<circle cx="151" cy="235" r="7" fill="#CCD1D8"/>
<circle cx="187" cy="235" r="7" fill="#747F8E"/>
<circle cx="223" cy="235" r="7" fill="#747F8E"/>
<circle cx="259" cy="235" r="7" fill="#CCD1D8"/>
<circle cx="7" cy="273" r="7" fill="#CCD1D8"/>
<circle cx="43" cy="273" r="7" fill="#747F8E"/>
<circle cx="79" cy="273" r="7" fill="#CCD1D8"/>
<circle cx="115" cy="273" r="7" fill="#CCD1D8"/>
<circle cx="151" cy="273" r="7" fill="#CCD1D8"/>
<circle cx="187" cy="273" r="7" fill="#747F8E"/>
<circle cx="223" cy="273" r="7" fill="#CCD1D8"/>
<circle cx="259" cy="273" r="7" fill="#CCD1D8"/>
<circle cx="7" cy="311" r="7" fill="#CCD1D8"/>
<circle cx="43" cy="311" r="7" fill="#747F8E"/>
<circle cx="79" cy="311" r="7" fill="#CCD1D8"/>
<circle cx="115" cy="311" r="7" fill="#CCD1D8"/>
<circle cx="151" cy="311" r="7" fill="#CCD1D8"/>
<circle cx="187" cy="311" r="7" fill="#747F8E"/>
<circle cx="223" cy="311" r="7" fill="#CCD1D8"/>
<circle cx="259" cy="311" r="7" fill="#747F8E"/>
</svg>
