<svg width="1688" height="445" viewBox="0 0 1688 445" fill="none" xmlns="http://www.w3.org/2000/svg">
<path d="M1262.75 72L1264.68 56.844L1265.84 55.6842L1281 53.7543L1265.79 52.2582L1264.68 51.156L1262.75 36L1261.26 51.218L1260.22 52.2582L1245 53.7543L1260.16 55.6842L1261.26 56.7864L1262.75 72Z" fill="white"/>
<path d="M386.754 36L388.684 20.844L389.844 19.6842L405 17.7543L389.786 16.2582L388.684 15.156L386.754 0L385.258 15.218L384.218 16.2582L369 17.7543L384.156 19.6842L385.258 20.7864L386.754 36Z" fill="white"/>
<path d="M1353.75 416L1355.68 400.844L1356.84 399.684L1372 397.754L1356.79 396.258L1355.68 395.156L1353.75 380L1352.26 395.218L1351.22 396.258L1336 397.754L1351.16 399.684L1352.26 400.786L1353.75 416Z" fill="white"/>
<circle cx="1680" cy="31" r="8" fill="white"/>
<circle cx="207" cy="226" r="8" fill="white"/>
<path d="M387 435L372 443.66L372 426.34L387 435Z" fill="white"/>
<path d="M1568 157L1553 165.66L1553 148.34L1568 157Z" fill="white"/>
<path d="M20 118L5 126.66L5 109.34L20 118Z" fill="white"/>
</svg>
