<?xml version="1.0" encoding="utf-8"?>
<!-- Generator: Adobe Illustrator 24.3.0, SVG Export Plug-In . SVG Version: 6.00 Build 0)  -->
<svg version="1.1" id="Layer_1" xmlns="http://www.w3.org/2000/svg" xmlns:xlink="http://www.w3.org/1999/xlink" x="0px" y="0px"
	 viewBox="0 0 16 16" style="enable-background:new 0 0 16 16;" xml:space="preserve">
<style type="text/css">
	.st0{fill:#F39562;}
	.st1{fill:#131313;}
	.st2{fill:#FFFFFF;}
</style>
<path class="st0" d="M8.03,16L8.03,16c-4.38,0-7.97-3.59-7.97-7.97v0c0-4.38,3.59-7.97,7.97-7.97h0c4.38,0,7.97,3.59,7.97,7.97v0
	C16,12.41,12.41,16,8.03,16z"/>
<path class="st1" d="M29.38,13.84L29.38,13.84c-3.48,0-6.33-2.85-6.33-6.33v0c0-3.48,2.85-6.33,6.33-6.33h0
	c3.48,0,6.33,2.85,6.33,6.33v0C35.71,10.99,32.86,13.84,29.38,13.84z"/>
<path d="M39.34,60.16l-0.91-2.1c-0.03-0.07-0.07-0.13-0.12-0.17c-0.05-0.05-0.12-0.07-0.21-0.07v-0.05h1.28v0.05
	c-0.11,0.01-0.18,0.06-0.21,0.14s-0.02,0.19,0.03,0.31l0.47,1.1l0.46-1.07c0.03-0.07,0.05-0.14,0.05-0.21
	c0-0.08-0.02-0.14-0.07-0.19c-0.05-0.05-0.11-0.08-0.19-0.09v-0.05h0.72v0.05c-0.08,0.02-0.15,0.06-0.23,0.14
	c-0.07,0.07-0.14,0.17-0.2,0.3l-0.84,1.91H39.34z"/>
<path d="M35.08,61.15c-0.21,0-0.36-0.01-0.47-0.02c-0.1-0.02-0.2-0.04-0.29-0.06c-0.09-0.02-0.21-0.04-0.37-0.06
	c-0.15-0.02-0.38-0.02-0.7-0.02l-0.29-2.26h0.16c0.13,0.75,0.37,1.32,0.72,1.7S34.58,61,34.99,61c0.41,0,0.72-0.08,0.93-0.25
	s0.32-0.4,0.32-0.68c0-0.18-0.05-0.35-0.14-0.49s-0.25-0.28-0.47-0.43s-0.53-0.33-0.91-0.53l-0.35-0.19
	c-0.44-0.25-0.77-0.54-0.98-0.87s-0.32-0.69-0.32-1.07c0-0.54,0.2-0.97,0.59-1.28c0.4-0.31,0.93-0.47,1.59-0.47
	c0.17,0,0.3,0.01,0.41,0.02c0.1,0.02,0.2,0.04,0.3,0.06c0.1,0.02,0.22,0.04,0.36,0.06c0.14,0.02,0.34,0.02,0.58,0.02l0.17,1.93
	h-0.14c-0.05-0.38-0.15-0.71-0.32-1s-0.36-0.52-0.58-0.68c-0.22-0.16-0.45-0.25-0.68-0.25c-0.3,0-0.55,0.08-0.73,0.24
	c-0.18,0.16-0.27,0.38-0.27,0.67c0,0.22,0.07,0.41,0.21,0.59c0.14,0.18,0.41,0.37,0.81,0.58l0.36,0.18c0.56,0.29,0.97,0.59,1.22,0.9
	c0.26,0.31,0.38,0.71,0.38,1.2C37.33,60.51,36.58,61.14,35.08,61.15z"/>
<path d="M29.34,59.26c0-0.49,0.13-0.89,0.38-1.2c0.26-0.31,0.66-0.61,1.22-0.9l0.36-0.18c0.4-0.21,0.67-0.4,0.81-0.58
	c0.14-0.18,0.21-0.38,0.21-0.59c0-0.29-0.09-0.51-0.27-0.67c-0.18-0.16-0.42-0.24-0.73-0.24c-0.23,0-0.46,0.08-0.68,0.25
	c-0.22,0.16-0.42,0.39-0.58,0.68s-0.27,0.63-0.32,1h-0.14l0.17-1.93c0.24,0,0.43-0.01,0.58-0.02c0.14-0.02,0.26-0.04,0.36-0.06
	c0.1-0.02,0.2-0.04,0.3-0.06c0.1-0.02,0.24-0.02,0.41-0.02c0.66,0,1.19,0.16,1.59,0.47c0.4,0.31,0.59,0.74,0.59,1.28
	c0,0.38-0.11,0.74-0.32,1.07s-0.54,0.62-0.98,0.87l-0.35,0.19c-0.38,0.21-0.69,0.39-0.91,0.53s-0.38,0.29-0.47,0.43
	s-0.14,0.3-0.14,0.49c0,0.29,0.11,0.52,0.32,0.68S31.27,61,31.68,61c0.42,0,0.8-0.19,1.15-0.57s0.59-0.95,0.72-1.7h0.16l-0.29,2.26
	c-0.31,0-0.54,0.01-0.7,0.02c-0.15,0.02-0.27,0.04-0.37,0.06c-0.09,0.02-0.19,0.04-0.29,0.06c-0.1,0.02-0.26,0.02-0.47,0.02
	C30.09,61.14,29.34,60.51,29.34,59.26z"/>
<polygon points="33.04,60.16 33.35,59.62 33.71,60.27 34.12,59.62 33.92,58.54 33.22,58.31 32.54,58.76 32.32,59.49 "/>
<path d="M48.74,37.91v0.24c-0.15,0.02-0.29,0.08-0.42,0.2c-0.13,0.12-0.25,0.33-0.36,0.64l-1.97,5.16c-0.03,0-0.06,0-0.1,0
	c-0.03,0-0.07,0-0.11,0l-2.21-5.32c-0.13-0.31-0.25-0.5-0.38-0.57c-0.12-0.07-0.23-0.1-0.32-0.1v-0.25c0.16,0.01,0.33,0.02,0.5,0.03
	c0.17,0.01,0.36,0.02,0.56,0.02c0.25,0,0.51,0,0.79-0.01c0.28-0.01,0.53-0.02,0.77-0.04v0.25c-0.2,0-0.38,0.01-0.53,0.04
	c-0.16,0.03-0.26,0.11-0.3,0.23s-0.01,0.35,0.11,0.66l1.5,3.71l-0.07,0.06l1.37-3.59c0.1-0.26,0.15-0.47,0.13-0.63
	c-0.02-0.16-0.1-0.27-0.24-0.35c-0.14-0.08-0.35-0.13-0.64-0.14v-0.24c0.14,0.01,0.27,0.01,0.37,0.02c0.1,0,0.21,0.01,0.31,0.01
	s0.21,0.01,0.33,0.01c0.18,0,0.35,0,0.5-0.01C48.48,37.93,48.61,37.92,48.74,37.91z"/>
<path d="M35.34,39.3c0.32,0,0.59,0.05,0.82,0.16c0.22,0.1,0.39,0.2,0.49,0.29c0.26,0.22,0.42,0.07,0.48-0.43h0.28
	c-0.02,0.22-0.03,0.49-0.04,0.8c-0.01,0.31-0.01,0.72-0.01,1.24h-0.28c-0.05-0.3-0.13-0.58-0.25-0.86
	c-0.12-0.28-0.29-0.51-0.51-0.69c-0.22-0.18-0.52-0.27-0.88-0.27c-0.28,0-0.51,0.08-0.7,0.23c-0.19,0.16-0.28,0.39-0.28,0.69
	c0,0.24,0.07,0.45,0.22,0.62c0.14,0.17,0.33,0.33,0.56,0.48c0.23,0.15,0.48,0.31,0.76,0.49c0.3,0.19,0.58,0.39,0.83,0.59
	c0.25,0.2,0.45,0.42,0.59,0.66c0.15,0.24,0.22,0.52,0.22,0.85c0,0.37-0.1,0.68-0.29,0.92c-0.19,0.25-0.44,0.44-0.75,0.56
	c-0.31,0.13-0.65,0.19-1.01,0.19c-0.18,0-0.34-0.01-0.5-0.04c-0.16-0.03-0.31-0.07-0.45-0.13c-0.08-0.04-0.16-0.09-0.25-0.14
	c-0.08-0.06-0.17-0.12-0.25-0.18c-0.08-0.06-0.15-0.06-0.22,0.01c-0.06,0.07-0.11,0.2-0.14,0.4h-0.28c0.02-0.26,0.03-0.57,0.04-0.94
	c0.01-0.37,0.01-0.86,0.01-1.46h0.28c0.06,0.45,0.14,0.84,0.24,1.18c0.1,0.34,0.27,0.6,0.49,0.79c0.22,0.19,0.54,0.28,0.94,0.28
	c0.16,0,0.32-0.04,0.49-0.11c0.16-0.07,0.3-0.19,0.41-0.36c0.11-0.17,0.17-0.39,0.17-0.67c0-0.35-0.13-0.64-0.38-0.86
	c-0.26-0.22-0.58-0.46-0.97-0.71c-0.29-0.18-0.56-0.37-0.81-0.55s-0.46-0.39-0.61-0.62s-0.23-0.51-0.23-0.84
	c0-0.36,0.08-0.65,0.25-0.88s0.38-0.4,0.65-0.5C34.73,39.35,35.03,39.3,35.34,39.3z"/>
<path d="M33.44,39.46c0.27,0.11,0.49,0.28,0.65,0.5s0.25,0.52,0.25,0.88c0,0.33-0.08,0.61-0.23,0.84s-0.36,0.44-0.61,0.62
	s-0.52,0.37-0.81,0.55c-0.39,0.25-0.72,0.48-0.97,0.71c-0.26,0.22-0.38,0.51-0.38,0.86c0,0.28,0.06,0.5,0.17,0.67
	c0.11,0.17,0.25,0.29,0.41,0.36c0.16,0.07,0.33,0.11,0.49,0.11c0.4,0,0.71-0.09,0.94-0.28c0.22-0.19,0.39-0.45,0.49-0.79
	c0.1-0.34,0.18-0.73,0.24-1.18h0.28c0,0.61,0,1.1,0.01,1.46c0.01,0.37,0.02,0.68,0.04,0.94h-0.28c-0.03-0.2-0.08-0.33-0.14-0.4
	c-0.06-0.07-0.14-0.07-0.22-0.01c-0.08,0.06-0.16,0.12-0.25,0.18c-0.08,0.06-0.17,0.1-0.25,0.14c-0.14,0.06-0.29,0.1-0.45,0.13
	c-0.16,0.03-0.32,0.04-0.5,0.04c-0.37,0-0.71-0.06-1.01-0.19c-0.31-0.13-0.56-0.32-0.75-0.56c-0.19-0.25-0.29-0.56-0.29-0.92
	c0-0.33,0.07-0.61,0.22-0.85c0.15-0.24,0.35-0.46,0.59-0.66c0.25-0.2,0.52-0.4,0.83-0.59c0.27-0.18,0.52-0.34,0.76-0.49
	c0.23-0.15,0.42-0.31,0.56-0.48c0.14-0.17,0.22-0.38,0.22-0.62c0-0.3-0.09-0.53-0.28-0.69c-0.19-0.16-0.42-0.23-0.7-0.23
	c-0.36,0-0.65,0.09-0.88,0.27c-0.22,0.18-0.39,0.41-0.51,0.69c-0.12,0.28-0.2,0.57-0.25,0.86h-0.28c0-0.52,0-0.93-0.01-1.24
	c-0.01-0.31-0.02-0.57-0.04-0.8h0.28c0.06,0.5,0.22,0.65,0.48,0.43c0.1-0.09,0.27-0.18,0.49-0.29c0.22-0.1,0.5-0.16,0.82-0.16
	C32.87,39.3,33.17,39.35,33.44,39.46z"/>
<g>
	<path d="M13.18,22.18c-0.61-0.26-1.36-0.27-2.03-0.22c-1.13,0.09-1.94,0.87-2.15,1.89c-0.18,0.85,0.26,1.66,1.28,2.25
		c0.5,0.28,1.04,0.49,1.56,0.73c0.7,0.33,1.42,0.61,2.09,0.98c0.52,0.28,0.84,0.75,0.72,1.39c-0.12,0.65-0.54,1.04-1.17,1.21
		c-1.95,0.51-3.73-0.48-4.32-2.39c-0.04-0.16-0.1-0.32-0.15-0.48c0,0.81,0.09,1.61,0.2,2.41c0.01,0.09,0.15,0.21,0.26,0.26
		c1.62,0.6,3.26,0.81,4.9,0.12c0.22-0.09,0.43-0.13,0.63-0.11v-7.63C14.39,22.58,13.79,22.45,13.18,22.18z M11.57,25.3
		c-0.47-0.2-0.96-0.4-1.37-0.71c-0.93-0.71-0.74-1.83,0.35-2.26c1.81-0.7,3.79,0.55,4.15,2.66c0.09,0.51,0.08,1.05,0.11,1.58
		C13.63,26.11,12.59,25.72,11.57,25.3z"/>
</g>
<g>
	<path d="M14.89,22.57v7.63c0.21-0.02,0.41,0.03,0.63,0.11c1.65,0.69,3.28,0.48,4.9-0.12c0.1-0.04,0.25-0.16,0.26-0.26
		c0.11-0.8,0.2-1.59,0.2-2.41c-0.05,0.16-0.11,0.32-0.15,0.48c-0.59,1.91-2.37,2.9-4.32,2.39c-0.63-0.17-1.05-0.56-1.17-1.21
		c-0.12-0.64,0.2-1.11,0.72-1.39c0.67-0.37,1.39-0.65,2.09-0.98c0.52-0.24,1.06-0.45,1.56-0.73c1.02-0.58,1.46-1.4,1.28-2.25
		c-0.21-1.02-1.02-1.8-2.15-1.89c-0.67-0.04-1.42-0.03-2.03,0.22C16.09,22.45,15.49,22.58,14.89,22.57z M15.07,26.56
		c0.03-0.52,0.02-1.06,0.11-1.58c0.36-2.11,2.34-3.36,4.15-2.66c1.09,0.43,1.28,1.55,0.35,2.26c-0.41,0.31-0.9,0.51-1.37,0.71
		C17.29,25.72,16.25,26.11,15.07,26.56z"/>
</g>
<g>
	<path class="st2" d="M8.03,11.44h0.04v-0.01C8.06,11.43,8.04,11.43,8.03,11.44z"/>
	<path class="st2" d="M9.33,11.61c-0.56-0.15-0.93-0.49-1.03-1.07C8.19,9.97,8.47,9.57,8.94,9.32c0.59-0.33,1.23-0.58,1.85-0.87
		c0.46-0.21,0.94-0.4,1.38-0.65c0.9-0.51,1.28-1.24,1.12-1.98c-0.19-0.9-0.9-1.59-1.9-1.67c-0.58-0.04-1.25-0.03-1.79,0.19
		C9.08,4.58,8.57,4.7,8.07,4.7H7.99c-0.49,0-1-0.11-1.51-0.34C5.94,4.13,5.27,4.13,4.69,4.16C3.68,4.24,2.97,4.93,2.78,5.83
		C2.62,6.57,3.01,7.3,3.91,7.81c0.44,0.25,0.92,0.43,1.38,0.65c0.62,0.28,1.25,0.54,1.85,0.87c0.46,0.25,0.74,0.65,0.64,1.22
		c-0.11,0.58-0.48,0.92-1.03,1.07c-1.72,0.46-3.3-0.42-3.82-2.11C2.88,9.36,2.83,9.21,2.78,9.07c0,0.72,0.08,1.42,0.18,2.13
		c0.01,0.08,0.14,0.19,0.23,0.23c1.43,0.53,2.87,0.71,4.33,0.11c0.17-0.07,0.33-0.11,0.48-0.11c0.02,0,0.03,0,0.04,0.01
		c0.01-0.01,0.03-0.01,0.04-0.01c0.16,0,0.32,0.04,0.49,0.11c1.45,0.6,2.9,0.42,4.33-0.11c0.09-0.04,0.22-0.15,0.23-0.23
		c0.1-0.71,0.17-1.4,0.17-2.13c-0.04,0.14-0.1,0.28-0.13,0.42C12.63,11.19,11.06,12.07,9.33,11.61z M5.06,7.11
		C4.63,6.94,4.21,6.76,3.84,6.48c-0.81-0.63-0.65-1.62,0.32-2C5.75,3.87,7.5,4.97,7.81,6.84c0.09,0.45,0.07,0.93,0.1,1.39
		C6.88,7.83,5.96,7.48,5.06,7.11z M8.26,6.84c0.32-1.86,2.07-2.97,3.66-2.35c0.96,0.38,1.13,1.37,0.31,2
		c-0.36,0.27-0.79,0.46-1.21,0.63c-0.9,0.37-1.82,0.72-2.86,1.11C8.19,7.77,8.17,7.29,8.26,6.84z"/>
</g>
<g>
	<path class="st0" d="M29.38,10.22h0.03v-0.01C29.41,10.21,29.39,10.21,29.38,10.22z"/>
	<path class="st0" d="M30.42,10.35c-0.44-0.12-0.74-0.39-0.82-0.85c-0.08-0.45,0.13-0.77,0.51-0.97c0.47-0.26,0.98-0.46,1.47-0.69
		c0.37-0.17,0.74-0.32,1.1-0.51c0.72-0.41,1.02-0.98,0.89-1.57c-0.15-0.72-0.72-1.26-1.51-1.33c-0.46-0.03-1-0.02-1.43,0.15
		c-0.41,0.18-0.81,0.27-1.21,0.27h-0.06c-0.39,0-0.79-0.09-1.2-0.27c-0.43-0.18-0.96-0.18-1.43-0.15c-0.8,0.06-1.36,0.61-1.52,1.33
		c-0.13,0.59,0.18,1.17,0.9,1.57c0.35,0.2,0.73,0.34,1.1,0.51c0.49,0.22,1,0.43,1.47,0.69c0.37,0.2,0.59,0.52,0.51,0.97
		c-0.08,0.46-0.38,0.73-0.82,0.85c-1.37,0.37-2.62-0.34-3.03-1.68c-0.03-0.11-0.07-0.22-0.11-0.34c0,0.58,0.06,1.13,0.14,1.69
		c0.01,0.06,0.11,0.15,0.18,0.18c1.14,0.42,2.28,0.56,3.44,0.08c0.13-0.06,0.26-0.08,0.38-0.08c0.01,0,0.02,0,0.04,0.01
		c0.01-0.01,0.02-0.01,0.03-0.01c0.13,0,0.25,0.03,0.39,0.08c1.15,0.48,2.3,0.34,3.44-0.08c0.07-0.04,0.18-0.12,0.18-0.18
		c0.08-0.56,0.13-1.12,0.13-1.69c-0.04,0.11-0.08,0.22-0.11,0.34C33.04,10.01,31.79,10.72,30.42,10.35z M27.02,6.78
		c-0.34-0.13-0.67-0.28-0.97-0.5c-0.65-0.5-0.51-1.29,0.25-1.59c1.26-0.49,2.65,0.39,2.91,1.87c0.07,0.36,0.06,0.74,0.08,1.1
		C28.46,7.34,27.73,7.07,27.02,6.78z M29.56,6.56c0.25-1.48,1.64-2.36,2.91-1.87c0.77,0.3,0.9,1.09,0.25,1.59
		c-0.29,0.22-0.62,0.37-0.96,0.5c-0.72,0.29-1.45,0.57-2.28,0.88C29.5,7.3,29.49,6.92,29.56,6.56z"/>
</g>
<g>
	<path class="st0" d="M-9.11,3.23v0.01h0.05C-9.08,3.23-9.09,3.23-9.11,3.23z"/>
</g>
<path class="st0" d="M-27.78-3.17L-27.78-3.17c-1.25,0-2.28-1.02-2.28-2.28v-1.11c0-1.25,1.02-2.28,2.28-2.28h0
	c1.25,0,2.28,1.02,2.28,2.28v1.11C-25.5-4.19-26.52-3.17-27.78-3.17z"/>
</svg>
