<svg width="46" height="46" viewBox="0 0 46 46" fill="none" xmlns="http://www.w3.org/2000/svg">
<path d="M9.9001 34.01C9.6901 33.96 9.5101 33.85 9.3501 33.71C9.5201 33.84 9.7001 33.95 9.9001 34.01Z" stroke="black" stroke-width="1.5572" stroke-miterlimit="10" stroke-linecap="round" stroke-linejoin="round"/>
<path d="M33.63 16.73C33.63 17.08 33.61 17.43 33.57 17.76V16.73C33.57 11.4 29.09 7.06001 23.45 6.79001C29.12 7.03001 33.63 11.39 33.63 16.73Z" stroke="black" stroke-width="1.5572" stroke-miterlimit="10" stroke-linecap="round" stroke-linejoin="round"/>
<path d="M37.0901 32.3V32.48C37.0901 32.94 36.9001 33.35 36.6001 33.64C36.9201 33.3 37.0901 32.8 37.0901 32.3Z" stroke="black" stroke-width="1.5572" stroke-miterlimit="10" stroke-linecap="round" stroke-linejoin="round"/>
<path d="M19.5 39.21H26.54" stroke="black" stroke-width="1.5572" stroke-miterlimit="10" stroke-linecap="round" stroke-linejoin="round"/>
<path d="M37.09 31.94V32.29C37.09 32.8 36.92 33.29 36.6 33.63C36.57 33.66 36.54 33.69 36.51 33.71C36.35 33.84 36.17 33.94 35.96 34.01C35.91 34.03 35.87 34.04 35.82 34.05C35.8 34.06 35.79 34.06 35.77 34.06C35.73 34.07 35.69 34.08 35.65 34.08C35.6 34.09 35.55 34.09 35.49 34.09C35.45 34.09 10.39 34.09 10.39 34.09C10.33 34.09 10.28 34.08 10.22 34.08C10.18 34.08 10.14 34.07 10.1 34.06C10.08 34.05 10.07 34.05 10.05 34.05C10 34.03 9.95003 34.02 9.90003 34.01C9.70003 33.95 9.52003 33.84 9.35003 33.71C9.32003 33.68 9.29003 33.66 9.26003 33.63C8.94003 33.3 8.78003 32.8 8.78003 32.3V31.95C8.78003 31.33 9.13003 30.79 9.64003 30.53C9.86003 30.34 10.1 30.17 10.32 29.96C11.04 29.31 11.74 28.55 12.29 27.75V16.73C12.29 11.4 16.77 7.06 22.41 6.79C22.58 6.78 22.74 6.78 22.91 6.78C23.09 6.78 23.28 6.79 23.46 6.79C29.1 7.06 33.58 11.4 33.58 16.73V27.74C34.14 28.54 34.84 29.3 35.55 29.95C35.77 30.15 36.01 30.32 36.23 30.52C36.74 30.79 37.09 31.33 37.09 31.94Z" stroke="black" stroke-width="1.5572" stroke-miterlimit="10" stroke-linecap="round" stroke-linejoin="round"/>
<path d="M22.41 6.79001C16.77 7.06001 12.29 11.4 12.29 16.73V17.76C12.25 17.42 12.23 17.07 12.23 16.73C12.24 11.39 16.75 7.03001 22.41 6.79001Z" stroke="black" stroke-width="1.5572" stroke-miterlimit="10" stroke-linecap="round" stroke-linejoin="round"/>
<path d="M36.51 33.71C36.36 33.85 36.18 33.95 35.96 34.01C36.16 33.95 36.35 33.84 36.51 33.71Z" stroke="black" stroke-width="1.5572" stroke-miterlimit="10" stroke-linecap="round" stroke-linejoin="round"/>
</svg>
