<svg width="60" height="60" viewBox="0 0 60 60" fill="none" xmlns="http://www.w3.org/2000/svg">
<path d="M25 46C36.0457 46 45 37.0457 45 26C45 14.9543 36.0457 6 25 6C13.9543 6 5 14.9543 5 26C5 37.0457 13.9543 46 25 46Z" fill="#FF985F"/>
<path d="M55 14.1115C55 14.0687 54.9938 14.0258 54.9875 13.9769C54.9813 13.9157 54.9813 13.8545 54.9688 13.7933C54.9626 13.7504 54.9501 13.7076 54.9438 13.6708C54.9313 13.6096 54.9126 13.5423 54.8939 13.4811C54.8877 13.4628 54.8877 13.4505 54.8814 13.4322C54.8752 13.4077 54.8564 13.3832 54.8502 13.3587C54.8252 13.2975 54.8003 13.2424 54.7691 13.1812C54.7503 13.1384 54.7254 13.1017 54.7066 13.0649C54.6754 13.0099 54.6442 12.9609 54.6068 12.9119C54.5818 12.8752 54.5569 12.8385 54.5256 12.8018C54.4882 12.7528 54.4445 12.71 54.4071 12.6671C54.3758 12.6365 54.3446 12.5998 54.3134 12.5692C54.2697 12.5263 54.2198 12.4896 54.1699 12.4529C54.1324 12.4284 54.1012 12.3978 54.0638 12.3733C54.0138 12.3366 53.9514 12.306 53.8952 12.2754C53.8578 12.2571 53.8204 12.2326 53.7829 12.2142C53.7767 12.2142 53.7704 12.2081 53.7704 12.2081C53.708 12.1775 53.6394 12.153 53.5769 12.1346C53.5457 12.1224 53.5208 12.1102 53.4896 12.0979C53.3834 12.0673 53.2773 12.0428 53.1712 12.0245C53.1525 12.0245 53.1338 12.0245 53.1151 12.0184C53.0277 12.0061 52.9341 12 52.8467 12C52.8404 12 52.8342 12 52.8217 12H25.7335C25.2404 12 24.7536 12.1652 24.3666 12.4713L9.81764 23.8795C9.77395 23.9101 9.74274 23.953 9.70529 23.9836C9.67408 24.0142 9.64288 24.0387 9.61167 24.0693C9.53677 24.1488 9.46811 24.2284 9.4057 24.3202C9.39322 24.3386 9.38073 24.3508 9.36825 24.363C9.29959 24.4671 9.23718 24.5772 9.18725 24.6935C9.16852 24.7303 9.16228 24.767 9.14355 24.8037C9.11235 24.8894 9.08114 24.9751 9.06242 25.0608C9.04993 25.1036 9.04369 25.1464 9.03745 25.1893C9.01872 25.2872 9.01248 25.3913 9.00624 25.4892C9.00624 25.5137 9 25.532 9 25.5565V50.8579C9 52.0391 9.97992 53 11.1845 53H38.2727C38.41 53 38.5411 52.9878 38.6722 52.9633C38.7221 52.9572 38.7658 52.9388 38.8157 52.9266C38.8969 52.9082 38.978 52.8837 39.0592 52.8531C39.1091 52.8347 39.159 52.8103 39.209 52.7858C39.2776 52.7552 39.3463 52.7185 39.4149 52.6756C39.4649 52.645 39.5085 52.6205 39.5522 52.5838C39.5772 52.5655 39.6084 52.5471 39.6334 52.5287L54.1824 41.1205C54.7004 40.7104 55 40.0984 55 39.4496V14.1421C55 14.1299 55 14.1237 55 14.1115ZM46.5864 16.2842L37.505 23.4083H30.8266L39.9142 16.2842H46.5864ZM26.495 16.2842H32.9175L24.0858 23.2063C24.0545 23.2308 24.0296 23.2614 24.0046 23.2859C23.9609 23.3226 23.9172 23.3593 23.8735 23.4021H17.4136L26.495 16.2842ZM13.3691 27.6925H23.2681V31.989C23.2681 33.1702 24.248 34.1311 25.4526 34.1311C26.6573 34.1311 27.6372 33.1702 27.6372 31.989V27.6925H36.0882V48.7097H13.3691V27.6925ZM40.451 46.3962V26.5786L50.6309 18.5977V38.4153L40.451 46.3962Z" fill="#4F4F4F"/>
</svg>
