<svg width="60" height="60" viewBox="0 0 60 60" fill="none" xmlns="http://www.w3.org/2000/svg">
<path d="M23 46C34.0457 46 43 37.2696 43 26.5C43 15.7304 34.0457 7 23 7C11.9543 7 3 15.7304 3 26.5C3 37.2696 11.9543 46 23 46Z" fill="#FF985F"/>
<path d="M52.9389 33.2246C52.9267 33.1818 52.9145 33.1451 52.9023 33.1022C52.8718 32.9921 52.8352 32.888 52.7863 32.784C52.7802 32.7656 52.7741 32.7412 52.7619 32.7228L46.3028 20.0182C45.9365 19.3022 45.2039 18.8493 44.398 18.8493H36.1807V17.1419C36.1807 15.9608 35.2222 15 34.044 15H10.1368C8.95849 15 8 15.9608 8 17.1419V46.1373C8 47.3184 8.95849 48.2792 10.1368 48.2792H14.8864C15.7778 50.4517 17.9695 52 20.5397 52C23.1038 52 25.3016 50.4578 26.1929 48.2792H34.0501H36.4554C37.3468 50.4517 39.5385 52 42.1087 52C44.6728 52 46.8706 50.4578 47.7619 48.2792H50.8632C52.0415 48.2792 53 47.3184 53 46.1373V33.6958C52.9939 33.5306 52.9695 33.3715 52.9389 33.2246ZM43.0855 23.1331L47.3651 31.5539H36.1807V23.1331H43.0855ZM12.2735 19.2838H31.9072V20.9912V43.9954H26.1868C25.2955 41.8229 23.1038 40.2746 20.5336 40.2746C17.9634 40.2746 15.7717 41.8167 14.8803 43.9954H12.2674V19.2838H12.2735ZM20.5336 47.9487C19.5385 47.9487 18.7265 47.1348 18.7265 46.1373C18.7265 45.1398 19.5385 44.332 20.5336 44.332C21.5287 44.332 22.3407 45.1459 22.3407 46.1373C22.3407 47.1348 21.5287 47.9487 20.5336 47.9487ZM42.1026 47.9487C41.1074 47.9487 40.2955 47.1348 40.2955 46.1373C40.2955 45.1398 41.1074 44.332 42.1026 44.332C43.0977 44.332 43.9096 45.1459 43.9096 46.1373C43.9035 47.1348 43.0977 47.9487 42.1026 47.9487ZM47.7558 43.9954C46.8645 41.8229 44.6728 40.2746 42.1026 40.2746C39.5324 40.2746 37.3407 41.8167 36.4493 43.9954H36.1807V35.8377H48.7204V43.9954H47.7558Z" fill="#4F4F4F"/>
</svg>
