<svg width="100" height="100" viewBox="0 0 100 100" fill="none" xmlns="http://www.w3.org/2000/svg">
<rect width="100" height="100" fill="white"/>
<path d="M67.33 45.9764C77.3 48.5664 83.99 53.3764 83.99 58.8864C83.99 67.1364 68.56 73.8264 49.99 73.8264" stroke="#4F4F4F" stroke-width="3" stroke-miterlimit="10" stroke-linecap="round" stroke-linejoin="round"/>
<path d="M49.99 60.4765C57.81 60.4765 64.93 57.8965 68.1 52.4365C68.12 52.1065 68.15 51.7865 68.15 51.4565C68.15 49.6465 67.82 46.6465 67.22 44.8865" stroke="#4F4F4F" stroke-width="3" stroke-miterlimit="10" stroke-linecap="round" stroke-linejoin="round"/>
<path d="M49.99 52.7965C57.16 52.7965 63.79 49.6165 67.22 44.8865" stroke="#4F4F4F" stroke-width="3" stroke-miterlimit="10" stroke-linecap="round" stroke-linejoin="round"/>
<path d="M32.66 45.9764C22.69 48.5664 16 53.3764 16 58.8864C16 67.1364 31.43 73.8264 50 73.8264" stroke="#4F4F4F" stroke-width="3" stroke-miterlimit="10" stroke-linecap="round" stroke-linejoin="round"/>
<path d="M49.9901 60.4765C42.1701 60.4765 35.0501 57.8965 31.8801 52.4365C31.8601 52.1065 31.8301 51.7865 31.8301 51.4565C31.8301 49.6465 32.1601 46.6465 32.7601 44.8865" stroke="#4F4F4F" stroke-width="3" stroke-miterlimit="10" stroke-linecap="round" stroke-linejoin="round"/>
<path d="M49.99 52.7965C42.82 52.7965 36.19 49.6165 32.76 44.8865" stroke="#4F4F4F" stroke-width="3" stroke-miterlimit="10" stroke-linecap="round" stroke-linejoin="round"/>
<path d="M33.01 45.1565C33.9 36.1165 36.56 31.1065 36.56 31.1065C38.3 27.0165 43.35 25.7065 46.79 28.4365C47.95 29.3565 48.6 29.8365 49.99 29.8665C51.38 29.8265 52.03 29.3465 53.19 28.4365C56.64 25.7065 61.69 27.0165 63.42 31.1065C63.42 31.1065 66.09 36.1265 66.97 45.1565" stroke="#4F4F4F" stroke-width="3" stroke-miterlimit="10" stroke-linecap="round" stroke-linejoin="round"/>
</svg>
