<svg width="64" height="64" viewBox="0 0 64 64" fill="none" xmlns="http://www.w3.org/2000/svg">
<g clip-path="url(#clip0_77_1393)">
<path d="M44.5071 31.7536C47.3516 19.8419 39.8921 7.90544 27.8458 5.09276C15.7995 2.28007 3.72822 9.65627 0.883753 21.568C-1.96071 33.4797 5.49882 45.4161 17.5451 48.2288C29.5913 51.0415 41.6627 43.6653 44.5071 31.7536Z" fill="#FF985F"/>
<path d="M55.3441 54.3182L50.8322 49.5559C54.2784 44.3345 53.7456 37.0232 49.2544 32.2884C47.4413 30.3698 45.1853 29.0884 42.7425 28.5197C44.5833 27.2657 45.7943 25.1415 45.7943 22.7364C45.7943 22.709 45.7874 22.6885 45.7874 22.661C45.7874 22.5788 45.7736 22.4966 45.7597 22.4144C45.7459 22.3321 45.739 22.2499 45.7182 22.1677C45.7113 22.1403 45.7113 22.1197 45.7044 22.0923L42.6456 11.1014C42.355 10.0599 41.4 9.34039 40.3136 9.34039H25.5598H25.5321H10.7437C9.6711 9.34039 8.72996 10.0393 8.42548 11.0534L5.1038 22.0443C5.09688 22.0786 5.08996 22.1129 5.08304 22.1403C5.06228 22.2225 5.04844 22.2979 5.0346 22.3801C5.02076 22.4623 5.01384 22.5446 5.00692 22.6336C5.00692 22.6679 5 22.6953 5 22.7296C5 24.9839 6.0657 26.9848 7.71962 28.2593V44.5675C7.71962 45.89 8.80609 46.9658 10.1417 46.9658H28.2033C28.8399 48.4869 29.7396 49.9191 30.9229 51.1661C33.4349 53.8179 36.7774 55.2775 40.3274 55.2775C42.9225 55.2775 45.3999 54.4895 47.4898 53.0162L51.8218 57.5867C52.2993 58.0869 52.9428 58.3404 53.5864 58.3404C54.1815 58.3404 54.7767 58.128 55.2472 57.6894C56.2091 56.7987 56.2576 55.2775 55.3441 54.3182ZM20.2105 14.1438H23.0754L22.9716 22.709C22.9716 22.7159 22.9716 22.7159 22.9716 22.7227C22.9716 22.7296 22.9716 22.7296 22.9716 22.7364C22.9716 23.9356 22.0443 24.9154 20.9025 24.9154C19.7953 24.9154 18.8957 23.9972 18.8403 22.8529L20.2105 14.1438ZM27.9196 14.1438H30.7914L31.9471 22.8324C31.8986 23.9904 30.999 24.9223 29.8849 24.9223C28.7431 24.9223 27.8158 23.9493 27.8158 22.7433L27.9196 14.1438ZM40.9294 22.9762C40.8118 24.0657 39.9468 24.9154 38.8811 24.9154C37.7393 24.9154 36.812 23.9356 36.812 22.7364C36.812 22.6816 36.7981 22.6336 36.7981 22.5788C36.7981 22.524 36.7981 22.476 36.7912 22.4212L35.6909 14.1369H38.4797L40.9294 22.9762ZM12.543 14.1438H15.3041L14.01 22.3664C14.0031 22.4281 14.0031 22.4829 14.0031 22.5446C13.9962 22.6062 13.9824 22.6679 13.9824 22.7364C13.9824 23.9356 13.0551 24.9154 11.9132 24.9154C10.8545 24.9154 9.99635 24.0795 9.86487 23.0037L12.543 14.1438ZM12.5568 42.1761V29.6777C14.017 29.5406 15.3526 28.9445 16.4044 28.0332C17.6154 29.0815 19.1863 29.7119 20.8956 29.7119C22.6049 29.7119 24.1827 29.0815 25.3868 28.0332C26.5978 29.0815 28.1687 29.7119 29.878 29.7119C31.5942 29.7119 33.165 29.0815 34.3691 28.0332C34.7636 28.3689 35.1926 28.6636 35.6563 28.9102C33.8224 29.5681 32.1408 30.6438 30.7361 32.1171C28.1341 34.8648 26.9369 38.5444 27.1099 42.1829H12.5568V42.1761ZM34.4522 47.8977C31.1374 44.403 31.0682 38.7979 34.2861 35.3993C35.7739 33.837 37.7462 32.9736 39.8568 32.9736C42.0505 32.9736 44.1335 33.8986 45.7251 35.5706C49.0399 39.0652 49.1091 44.6703 45.8912 48.069C44.4103 49.6313 42.4311 50.4946 40.3205 50.4946C38.1268 50.4946 36.0369 49.5696 34.4522 47.8977Z" fill="#4F4F4F"/>
</g>
<defs>
<clipPath id="clip0_77_1393">
<rect width="64" height="64" fill="white"/>
</clipPath>
</defs>
</svg>
