<svg width="100" height="100" viewBox="0 0 100 100" fill="none" xmlns="http://www.w3.org/2000/svg">
<rect width="100" height="100" fill="white"/>
<path d="M24.108 23C24.108 23 18.502 28.1818 17.6333 34.2222C16.7747 40.2626 16.3403 42.8586 19.3605 44.1515C22.3807 45.4444 27.1282 47.1717 27.1282 47.1717C27.1282 47.1717 34.8959 50.1919 39.209 59.6869C43.5222 69.1818 45.6838 76.0909 61.6535 76.0909C77.6232 76.0909 83.6636 76.0909 83.6636 76.0909C83.6636 76.0909 82.805 66.596 75.0272 64.8687C67.2595 63.1414 53.0171 67.4545 46.108 54.5152C39.209 41.5556 35.3302 26.4545 24.108 23Z" stroke="#4F4F4F" stroke-width="3" stroke-miterlimit="10" stroke-linecap="round" stroke-linejoin="round"/>
<path d="M19.3606 44.1414C19.3606 44.1414 20.6535 48.0302 21.0879 51.4747C21.5121 54.9393 23.0576 76.0808 23.0576 76.0808H30.6838V50.0808" stroke="#4F4F4F" stroke-width="3" stroke-miterlimit="10" stroke-linecap="round" stroke-linejoin="round"/>
<path d="M23.2898 63.6061H30.6837" stroke="#4F4F4F" stroke-width="3" stroke-miterlimit="10" stroke-linecap="round" stroke-linejoin="round"/>
</svg>
