<svg width="100" height="100" viewBox="0 0 100 100" fill="none" xmlns="http://www.w3.org/2000/svg">
<rect width="100" height="100" fill="white"/>
<path d="M76.8597 37.52L81.5698 55.27C84.6398 69.93 85.1697 75.7 77.9397 82.99H21.9797C14.7497 75.7 14.7798 71.01 18.3498 55.27L23.0598 37.52H76.8597Z" stroke="#4F4F4F" stroke-width="3" stroke-miterlimit="10" stroke-linecap="round" stroke-linejoin="round"/>
<path d="M64.4398 37.16V31.58C64.4398 23.56 57.8798 17 49.8598 17C41.8398 17 35.2798 23.56 35.2798 31.58V37.16" stroke="#4F4F4F" stroke-width="3" stroke-miterlimit="10" stroke-linecap="round" stroke-linejoin="round"/>
<path d="M37.4998 48.42V38.02" stroke="#4F4F4F" stroke-width="3" stroke-miterlimit="10" stroke-linecap="round" stroke-linejoin="round"/>
<path d="M34.1097 48.55L32.0597 57.18C31.6597 58.84 32.2197 60.58 33.5197 61.77L34.5797 62.74C36.1497 64.17 38.6497 64.2 40.2697 62.8L41.5397 61.7C42.8597 60.55 43.4597 58.85 43.1297 57.2L41.4197 48.56H34.1097V48.55Z" stroke="#4F4F4F" stroke-width="3" stroke-miterlimit="10" stroke-linecap="round" stroke-linejoin="round"/>
</svg>
